<mxfile host="65bd71144e">
    <diagram id="iwaDI8VUj__wTrZ5AAkc" name="Page-1">
        <mxGraphModel dx="482" dy="477" grid="1" gridSize="10" guides="1" tooltips="1" connect="1" arrows="1" fold="1" page="1" pageScale="1" pageWidth="827" pageHeight="1169" math="0" shadow="0">
            <root>
                <mxCell id="0"/>
                <mxCell id="1" parent="0"/>
                <mxCell id="22" value="" style="whiteSpace=wrap;html=1;" vertex="1" parent="1">
                    <mxGeometry x="30" y="140" width="540" height="580" as="geometry"/>
                </mxCell>
                <mxCell id="2" value="ストライプで取引を行うユースケースでのデータ入出力" style="whiteSpace=wrap;html=1;" vertex="1" parent="1">
                    <mxGeometry x="50" y="150" width="120" height="60" as="geometry"/>
                </mxCell>
                <mxCell id="3" value="deal&lt;br&gt;(dealテーブルへの保存)" style="whiteSpace=wrap;html=1;align=left;" vertex="1" parent="1">
                    <mxGeometry x="50" y="260" width="150" height="60" as="geometry"/>
                </mxCell>
                <mxCell id="4" value="stripe_payment&lt;br&gt;(stripe_paymentテーブルへの保存)" style="whiteSpace=wrap;html=1;align=left;" vertex="1" parent="1">
                    <mxGeometry x="50" y="330" width="150" height="60" as="geometry"/>
                </mxCell>
                <mxCell id="5" value="stripe_invoice&lt;br&gt;(stripe_invoiceテーブルへの保存)" style="whiteSpace=wrap;html=1;align=left;" vertex="1" parent="1">
                    <mxGeometry x="50" y="400" width="150" height="60" as="geometry"/>
                </mxCell>
                <mxCell id="6" value="&lt;br&gt;データ入出力は下記の4つだったとする。" style="text;html=1;align=center;verticalAlign=middle;resizable=0;points=[];autosize=1;strokeColor=none;fillColor=none;" vertex="1" parent="1">
                    <mxGeometry x="50" y="220" width="240" height="30" as="geometry"/>
                </mxCell>
                <mxCell id="7" value="stripe&lt;br&gt;(stripeのapiコールを行う。)" style="whiteSpace=wrap;html=1;align=left;" vertex="1" parent="1">
                    <mxGeometry x="50" y="470" width="150" height="60" as="geometry"/>
                </mxCell>
                <mxCell id="9" value="deal moduleに&lt;br&gt;- stripePaymentRepository(stripe paymentテーブルにデータ保存する)&lt;br&gt;- stripeInvoiceRepository(stripe invoiceテーブルにデータ保存する)&lt;br&gt;- stripeService(stripe apiコールする)" style="whiteSpace=wrap;html=1;align=left;" vertex="1" parent="1">
                    <mxGeometry x="50" y="560" width="380" height="90" as="geometry"/>
                </mxCell>
                <mxCell id="11" value="deal&lt;br&gt;module" style="whiteSpace=wrap;html=1;" vertex="1" parent="1">
                    <mxGeometry x="215" y="290" width="120" height="60" as="geometry"/>
                </mxCell>
                <mxCell id="19" style="edgeStyle=none;html=1;entryX=1;entryY=0.5;entryDx=0;entryDy=0;" edge="1" parent="1" source="12" target="11">
                    <mxGeometry relative="1" as="geometry"/>
                </mxCell>
                <mxCell id="12" value="stripe invoice&lt;br&gt;module" style="whiteSpace=wrap;html=1;" vertex="1" parent="1">
                    <mxGeometry x="400" y="250" width="120" height="60" as="geometry"/>
                </mxCell>
                <mxCell id="20" style="edgeStyle=none;html=1;entryX=1;entryY=0.75;entryDx=0;entryDy=0;" edge="1" parent="1" source="13" target="11">
                    <mxGeometry relative="1" as="geometry"/>
                </mxCell>
                <mxCell id="13" value="stripe payment&lt;br&gt;module" style="whiteSpace=wrap;html=1;" vertex="1" parent="1">
                    <mxGeometry x="400" y="330" width="120" height="60" as="geometry"/>
                </mxCell>
                <mxCell id="21" style="edgeStyle=none;html=1;entryX=1;entryY=1;entryDx=0;entryDy=0;" edge="1" parent="1" source="14" target="11">
                    <mxGeometry relative="1" as="geometry"/>
                </mxCell>
                <mxCell id="14" value="stripe&lt;br&gt;module" style="whiteSpace=wrap;html=1;" vertex="1" parent="1">
                    <mxGeometry x="400" y="410" width="120" height="60" as="geometry"/>
                </mxCell>
            </root>
        </mxGraphModel>
    </diagram>
</mxfile>